<?xml version="1.0" standalone="no"?>
<!DOCTYPE svg PUBLIC "-//W3C//DTD SVG 20010904//EN"
 "http://www.w3.org/TR/2001/REC-SVG-20010904/DTD/svg10.dtd">
<svg version="1.0" xmlns="http://www.w3.org/2000/svg"
 width="540.000000pt" height="540.000000pt" viewBox="0 0 540.000000 540.000000"
 preserveAspectRatio="xMidYMid meet">

<g transform="translate(0.000000,540.000000) scale(0.100000,-0.100000)"
fill="#000000" stroke="none">
<path d="M1862 3862 c-57 -31 -72 -65 -72 -164 0 -49 -4 -88 -9 -88 -9 0 -112
115 -128 144 -16 28 -177 45 -268 27 l-40 -7 95 -95 c108 -107 190 -155 287
-167 l58 -7 3 -339 c2 -296 0 -342 -14 -363 -8 -14 -14 -27 -11 -29 9 -9 76
-16 99 -11 28 7 82 109 73 137 -3 9 -24 25 -46 35 -35 16 -38 20 -25 33 36 36
122 -32 152 -120 28 -83 24 -151 -13 -230 -32 -69 -53 -99 -156 -224 l-58 -70
1 -578 c1 -639 -2 -612 64 -652 28 -17 61 -19 358 -24 l326 -5 -185 -205
c-274 -304 -296 -330 -291 -335 3 -3 117 119 253 270 l248 275 220 0 c180 0
218 2 214 13 -3 8 5 27 19 43 35 43 29 53 -9 16 -28 -27 -36 -30 -45 -19 -9
10 -5 21 18 48 42 49 37 60 -7 17 l-38 -37 -32 39 c-18 21 -33 42 -33 47 0 4
-25 35 -54 69 l-55 61 6 54 5 55 -45 37 c-52 42 -54 43 -79 21 -14 -14 -20
-14 -33 -4 -36 30 5 109 72 136 50 22 131 17 188 -10 58 -27 224 -149 308
-226 32 -29 59 -51 61 -49 2 2 -127 290 -286 639 -159 349 -296 657 -305 683
-28 86 7 154 87 164 25 4 38 9 32 15 -6 6 -25 5 -50 -2 -85 -22 -116 -113 -72
-215 l20 -46 -314 3 c-173 2 -317 6 -320 9 -4 3 -4 13 0 22 4 12 16 14 58 10
53 -6 102 9 91 27 -4 6 2 7 12 3 13 -4 15 -3 8 5 -5 6 -23 14 -38 17 -21 6
-27 4 -25 -6 4 -20 -50 -25 -58 -5 -3 9 -12 16 -19 16 -8 0 -14 21 -18 58 -2
32 -14 77 -26 99 l-20 41 33 16 c30 14 92 16 483 16 417 0 451 -1 483 -19 116
-61 115 -232 -3 -297 -16 -9 -8 -27 81 -175 54 -90 111 -188 127 -217 15 -28
30 -50 32 -48 3 2 4 359 4 792 -1 870 2 818 -64 868 -28 21 -35 21 -655 23
-583 2 -629 1 -660 -15z m1185 -134 c-3 -8 -6 -5 -6 6 -1 11 2 17 5 13 3 -3 4
-12 1 -19z m-1097 -3 c0 -8 -7 -15 -15 -15 -8 0 -15 7 -15 15 0 8 7 15 15 15
8 0 15 -7 15 -15z m55 6 c7 -12 -12 -24 -25 -16 -11 7 -4 25 10 25 5 0 11 -4
15 -9z m55 -6 c0 -8 -7 -15 -15 -15 -16 0 -20 12 -8 23 11 12 23 8 23 -8z
m-283 -147 c-3 -8 -6 -5 -6 6 -1 11 2 17 5 13 3 -3 4 -12 1 -19z m1242 -127
c37 -27 71 -91 71 -136 0 -16 -9 -49 -20 -73 -18 -40 -18 -44 -2 -71 20 -36 9
-75 -30 -104 -44 -33 -118 4 -118 60 l0 23 -426 0 c-373 0 -430 2 -460 16
-119 57 -121 233 -4 296 33 17 62 18 495 16 l460 -3 34 -24z m-192 -1176 c36
-77 69 -150 74 -163 l9 -23 -433 3 -432 3 -34 24 c-37 27 -70 90 -71 136 0 50
40 117 85 142 40 23 44 23 389 20 l349 -2 64 -140z m156 -399 c26 -11 39 -28
71 -99 l38 -86 -23 -42 c-36 -64 -48 -67 -102 -30 -74 51 -147 81 -197 81 -81
-1 -162 -53 -179 -116 l-7 -29 -238 -3 c-274 -3 -304 2 -358 59 -61 64 -63
149 -5 216 55 63 48 62 530 63 346 0 444 -3 470 -14z m-217 -538 c63 -69 95
-63 -354 -60 -276 2 -410 6 -419 13 -19 16 -16 56 5 68 10 7 151 11 378 11
l360 0 30 -32z"/>
<path d="M2000 3257 c0 -19 54 -65 86 -73 40 -10 89 5 120 37 24 25 26 32 14
40 -8 5 -28 7 -45 3 -38 -7 -78 -7 -132 2 -35 5 -43 3 -43 -9z"/>
<path d="M2083 2293 c-15 -5 -18 -93 -4 -93 6 0 7 16 4 35 -5 30 -3 35 14 35
12 0 26 -7 33 -15 9 -10 9 -15 1 -15 -6 0 -11 -9 -11 -20 0 -13 7 -20 20 -20
18 0 20 4 14 43 -9 53 -29 67 -71 50z"/>
<path d="M2020 2169 c0 -5 5 -7 10 -4 6 3 10 8 10 11 0 2 -4 4 -10 4 -5 0 -10
-5 -10 -11z"/>
<path d="M2082 1819 c-18 -7 -22 -16 -21 -46 1 -32 2 -34 8 -13 6 20 13 25 41
25 18 0 35 -6 38 -12 2 -7 -4 -13 -13 -13 -9 0 -13 -4 -10 -10 3 -5 13 -10 21
-10 11 0 14 9 12 37 -2 30 -8 38 -28 43 -14 4 -36 3 -48 -1z"/>
<path d="M2080 1750 c0 -5 5 -10 10 -10 6 0 10 5 10 10 0 6 -4 10 -10 10 -5 0
-10 -4 -10 -10z"/>
<path d="M2103 1723 c-7 -3 -13 -18 -13 -35 0 -25 3 -29 23 -26 15 2 23 11 25
29 3 27 -12 40 -35 32z m24 -19 c-3 -3 -12 -4 -19 -1 -8 3 -5 6 6 6 11 1 17
-2 13 -5z"/>
<path d="M2143 1641 c-8 -30 -36 -36 -52 -12 -7 12 -24 21 -37 21 -60 0 -18
-50 49 -57 45 -5 92 11 82 27 -3 6 1 7 9 4 9 -3 16 -2 16 4 0 6 -14 15 -31 21
-27 9 -32 8 -36 -8z"/>
<path d="M2108 2854 c-27 -14 -40 -54 -18 -54 6 0 10 5 10 10 0 6 13 10 29 10
35 0 48 15 31 35 -15 18 -18 18 -52 -1z"/>
<path d="M2717 2809 c-21 -11 -40 -26 -43 -33 -6 -16 53 -116 68 -116 13 0 81
40 89 53 11 16 -38 112 -58 114 -10 1 -35 -7 -56 -18z"/>
<path d="M1624 2684 c-128 -91 -176 -144 -245 -273 -34 -64 -87 -156 -117
-205 -101 -162 -113 -212 -131 -541 -17 -290 -18 -345 -9 -345 4 0 8 15 8 33
0 63 20 404 30 510 13 138 36 208 97 304 28 43 83 139 122 213 82 153 126 204
249 287 69 48 96 73 78 73 -2 0 -39 -25 -82 -56z"/>
<path d="M2118 2733 c7 -3 16 -2 19 1 4 3 -2 6 -13 5 -11 0 -14 -3 -6 -6z"/>
<path d="M1500 2532 c0 -5 28 -20 63 -33 34 -13 66 -26 71 -28 5 -2 5 2 1 9
-13 21 -135 68 -135 52z"/>
<path d="M1465 2480 c3 -5 12 -10 18 -10 7 0 36 -11 65 -25 28 -13 52 -20 52
-14 0 12 -98 59 -123 59 -10 0 -15 -4 -12 -10z"/>
<path d="M3930 2223 c-30 -8 -90 -18 -132 -23 -46 -5 -99 -18 -134 -34 -31
-14 -65 -26 -76 -26 -51 0 -112 -25 -153 -64 -43 -39 -86 -116 -66 -116 5 0
14 15 20 33 22 67 111 127 186 127 21 0 55 11 79 25 29 17 71 29 127 36 46 6
107 17 134 24 89 24 169 29 203 11 70 -36 134 -171 218 -456 51 -173 100 -294
391 -979 8 -18 17 -31 19 -28 3 3 -73 192 -170 421 -111 264 -188 460 -210
538 -78 276 -140 422 -208 490 -37 37 -40 38 -105 37 -38 0 -93 -7 -123 -16z"/>
<path d="M1284 1416 c7 -69 23 -126 36 -126 4 0 2 21 -6 47 -8 25 -14 68 -14
95 0 29 -4 48 -11 48 -8 0 -10 -19 -5 -64z"/>
<path d="M1324 1394 c8 -46 54 -144 67 -144 13 0 12 2 -15 51 -14 24 -28 61
-31 82 -4 20 -12 40 -18 44 -6 4 -7 -7 -3 -33z"/>
<path d="M3780 651 c0 -29 182 -93 203 -72 5 5 -24 16 -64 25 -39 9 -87 25
-105 37 -19 11 -34 16 -34 10z"/>
<path d="M3830 571 c0 -6 8 -15 19 -20 27 -15 143 -24 171 -13 19 7 6 10 -61
14 -47 3 -96 11 -107 17 -14 7 -22 8 -22 2z"/>
</g>
</svg>
